<svg width="40" height="8" viewBox="0 0 40 8" fill="none" xmlns="http://www.w3.org/2000/svg">
<path d="M37.6096 4.63052L39.1096 7.56794H36.7816L35.5216 5.0283H34.0576V7.56794H31.9336V0H35.3296C37.7656 0 39.0856 0.866948 39.0856 2.54985C39.0856 3.43719 38.5336 4.21234 37.6096 4.63052ZM34.0576 3.41679H35.6656C36.5776 3.41679 37.0096 3.00882 37.0096 2.50905C37.0096 1.95828 36.5416 1.6319 35.6896 1.6319H34.0576V3.41679Z" fill="black"/>
<path d="M30.7803 1.6115H26.0883V2.98842L30.5523 2.97822V4.55912H26.0883V5.95644H28.9323C29.8083 5.95644 30.2763 5.90544 30.8403 5.84425V7.42515C30.3123 7.53734 29.3403 7.56794 28.6563 7.56794H23.9883V0H30.7803V1.6115Z" fill="black"/>
<path d="M18.254 7.56794L15.374 0H17.678L19.346 4.9875L21.014 0H23.318L20.438 7.56794H18.254Z" fill="black"/>
<path d="M16.5712 7.56794H14.2432L13.6072 6.19102H10.8952L10.3072 7.56794H7.99121L11.2912 0H13.1752L16.5712 7.56794ZM12.2752 2.21327L11.4712 4.55912H13.0312L12.2752 2.21327Z" fill="black"/>
<path d="M2.112 2.86603V7.56794H0V0H2.076L5.208 4.54892V0H7.32V7.56794H5.352L2.112 2.86603Z" fill="black"/>
</svg>
