<svg width="16" height="11" viewBox="0 0 16 11" fill="none" xmlns="http://www.w3.org/2000/svg">
<path d="M15.2305 11H0V0H15.2305V11ZM14.8086 1.42773C14.6622 1.19358 14.3533 1.1222 14.1191 1.26855L7.87988 5.16797C7.71778 5.26917 7.51168 5.26926 7.34961 5.16797L1.11035 1.26855L1.01953 1.22363C0.801701 1.14265 0.549859 1.22296 0.421875 1.42773C0.293961 1.63271 0.332305 1.8945 0.500977 2.05469L0.581055 2.11621L5.16504 4.98047L0.568359 8.0459C0.338751 8.19912 0.276554 8.50956 0.429688 8.73926C0.582868 8.96879 0.893369 9.0309 1.12305 8.87793L6.0957 5.5625L6.82031 6.01562L6.91309 6.06934C7.38334 6.31848 7.9543 6.30047 8.41016 6.01562L9.13379 5.5625L14.1064 8.87793C14.3361 9.03095 14.6465 8.96865 14.7998 8.73926C14.953 8.50952 14.8908 8.19909 14.6611 8.0459L10.0645 4.98145L14.6494 2.11621C14.8832 1.96988 14.9545 1.66176 14.8086 1.42773Z" fill="#737373"/>
</svg>
