<svg width="16" height="14" viewBox="0 0 16 14" fill="none" xmlns="http://www.w3.org/2000/svg">
<path d="M8.95312 0C12.5488 0.000242282 15.4636 2.91507 15.4639 6.51074C15.4639 9.93335 12.8229 12.7373 9.46777 13C9.43475 13.0085 9.39838 13.0169 9.35938 13.0225C6.51082 13.4292 1.89916 12.48 0 11.8018C1.62765 11.1505 2.30576 8.00283 2.44141 6.51074L2.4502 6.17578C2.62477 2.73563 5.46959 0 8.95312 0ZM6.51074 5.69727C6.06149 5.69739 5.69751 6.06152 5.69727 6.51074C5.69727 6.96017 6.06134 7.32507 6.51074 7.3252C6.96025 7.3252 7.3252 6.96025 7.3252 6.51074C7.32495 6.06145 6.96009 5.69727 6.51074 5.69727ZM8.95312 5.69727C8.50362 5.69727 8.13867 6.06221 8.13867 6.51172C8.13893 6.961 8.50378 7.3252 8.95312 7.3252C9.40228 7.32497 9.76634 6.96086 9.7666 6.51172C9.7666 6.06235 9.40244 5.69749 8.95312 5.69727ZM11.3945 5.69727C10.945 5.69727 10.5801 6.06221 10.5801 6.51172C10.5803 6.961 10.9452 7.3252 11.3945 7.3252C11.8438 7.32513 12.2077 6.96096 12.208 6.51172C12.208 6.06225 11.844 5.69733 11.3945 5.69727Z" fill="#666666"/>
</svg>
